<svg xmlns="http://www.w3.org/2000/svg" viewBox="0 0 100 100" height="72.665" width="304"><path d="M61.145 137.984c14.027.448 26.506-3.067 37.439-10.552 10.932-7.459 18.604-17.968 23.01-31.525 1.974-9.71.6-18.647-4.115-26.809-4.72-8.14-12.271-12.947-22.662-14.426a39.97 39.97 0 0111.86 4.89c3.683 2.298 6.604 5.48 8.76 9.536 3.938 9.36 4.798 18.47 2.568 27.34-2.229 8.838-6.521 16.906-12.88 24.202-8.37 8.048-17.896 13.079-28.568 15.095-10.672 1.994-21.697 2.134-33.067.421a105.906 105.906 0 0017.655 1.828m22.063-65.79c-4.76 3.285-9.135 5.009-13.12 5.17-7.296-2.276-12.796-6.484-16.504-12.63-3.682-6.146-5.057-12.931-4.115-20.37 1.286-9.219 4.9-17.03 10.834-23.432 5.916-6.405 12.609-11.645 20.093-15.73C94.088.183 107.92-.587 121.875 2.88c13.958 3.495 26.234 10.464 36.838 20.901-10.53-10.39-22.468-17.437-35.817-21.145-13.344-3.683-26.833-3.505-40.464.53-9.568 4.126-17.718 9.787-24.453 16.99-6.75 7.224-10.282 15.984-10.588 26.281.964 6.568 3.182 13.01 6.65 19.318 3.475 6.308 8.656 10.166 15.552 11.573 5.21-.14 9.746-1.85 13.615-5.135m-1.51-7.74c-2.98-2.885-5.338-6.25-7.073-10.098-1.74-3.845-1.188-7.855 1.651-12.032 4.156-5.23 9.219-9.183 15.203-11.854 5.953-2.657 12.557-3.51 19.807-2.573 13.089 3.006 23.574 9.114 31.454 18.333 7.9 9.192 13.052 19.88 15.448 32.052 2.39 12.172 1.87 24.23-1.552 36.167 3.145-13.745 3.061-27.479-.245-41.197-3.308-13.746-10.099-25.428-20.37-35.043-6.406-5.536-13.761-9.125-22.062-10.765-8.303-1.646-16.256-1.12-23.855 1.584-7.599 2.692-13.547 7.796-17.839 15.301-1.145 9.901 1.995 16.604 9.432 20.125m30.787 69.63c5.953-5.911 11.104-12.681 15.443-20.302 4.318-7.625 6.885-15.75 7.704-24.38.796-8.656-1.126-17.48-5.767-26.458-4.437-8.328-11.047-14.345-19.843-18.052-8.797-3.683-17.99-4.542-27.59-2.568C96.184 40.656 107.86 44 117.48 52.349c9.614 8.375 15.114 19.458 16.5 33.25-.255 12.552-3.87 24.032-10.839 34.442-6.963 10.39-15.776 18.579-26.421 24.557a103.102 103.102 0 0015.765-10.515m-11.401-43.171c-6.662 9.895-15.624 16.416-26.88 19.561-11.26 3.142-22.25 1.724-32.968-4.26-8.47-6.26-15.256-13.811-20.371-22.656-5.115-8.864-7.26-18.494-6.437-28.885-1.76 11.89.396 22.683 6.469 32.37C27 96.728 35.276 104.01 45.74 108.89c10.437 4.88 21.296 6.052 32.577 3.516 8.397-3.328 14.814-8.538 19.246-15.62 4.458-7.084 6.077-14.662 4.858-22.73 1.052 5.375.61 10.99-1.338 16.855m-27.974-.496c-7.713 2.324-14.609 1.433-20.688-2.67-6.072-4.106-11.186-8.94-15.338-14.495-4.667-8.376-6.547-17.054-5.63-26.037.89-8.985 3.74-17.511 8.552-25.578 4.781-8.068 10.683-14.917 17.698-20.548C46.229 8.688 38.245 18.74 33.74 31.24c-4.5 12.5-4.761 25.12-.77 37.858 2.926 7.011 7.374 12.688 13.333 17.027 5.978 4.339 12.369 6.49 19.176 6.443 6.824-.027 12.98-3.09 18.469-9.188-2.51 3.147-6.12 5.49-10.839 7.036m6.793-22.197c-7.063-.89-11.902-4.15-14.533-9.782-2.604-5.609-2.4-11.672.6-18.192 4.271-6.87 9.911-12.136 16.922-15.797 7.036-3.656 14.521-5.719 22.448-6.193 7.953-.443 15.432.709 22.447 3.448-9.707-6.917-20.182-9.063-31.422-6.438-11.255 2.63-20.708 8.214-28.354 16.751-3.474 4.359-5.791 9.547-6.969 15.547-1.145 6.005 1.178 11.39 6.97 16.15 3.306 2.885 7.27 4.385 11.89 4.506M93.73 89.855c-4.808 6.124-10.849 10.202-18.12 12.243-7.27 2.063-14.614 2.063-22.025 0-10.365-4.363-18.486-11-24.344-19.91-5.87-8.937-9.104-18.792-9.713-29.557-.584-10.767 1.842-21.074 7.285-30.928-6.124 7.787-9.49 16.49-10.098 26.109-.61 9.615 1.062 18.776 5.031 27.48 3.984 8.703 9.791 15.572 17.411 20.615 9.453 6.405 18.907 9.583 28.36 9.536 9.432-.047 17.839-4.6 25.23-13.65 2.978-4.038 4.244-7.834 3.795-11.402-.468-3.588-1.968-7.527-4.5-11.823 3.964 6.099 4.527 13.197 1.688 21.287m14.563-12.667c1.479 9.807-.188 18.52-4.995 26.14-4.78 7.65-11.469 13.443-20.052 17.386-8.562 3.937-17.755 5.286-27.584 4.046-13.276-2.37-24.358-7.953-33.249-16.75C13.522 99.214 6.052 89 0 77.364c5.584 14.803 15.036 26.39 28.36 34.761 13.296 8.375 27.885 11.214 43.765 8.515 7.178-1.968 13.463-4.738 18.859-8.301 5.396-3.568 10.213-8.527 14.464-14.88 2.344-6.762 3.292-13.511 2.844-20.271" fill="#302e75" fill-rule="evenodd"/><path d="M179.912 55.307h4.25c4.187 0 6.478 1.188 6.478 4.729 0 3.48-2.29 5.25-6.479 5.25h-4.249zm18.541 27.5l-7.625-13.375c3.75-1.459 6.23-4.5 6.23-9.396 0-7.52-5.438-9.896-12.271-9.896H173.39v32.667h6.521V70.453h4.561l6.71 12.354zm10.244.625c2.814 0 5.292-1.416 7.459-3.27h.125l.5 2.645h5.292V68.369c0-7.145-3.229-10.896-9.5-10.896-3.876 0-7.417 1.459-10.333 3.251l2.353 4.292c2.292-1.333 4.5-2.333 6.792-2.333 3.042 0 4.104 1.853 4.188 4.27-9.917 1.063-14.209 3.854-14.209 9.145 0 4.188 2.917 7.334 7.333 7.334zm2.126-5.083c-1.916 0-3.271-.833-3.271-2.792 0-2.188 2.021-3.833 8.021-4.625v4.98c-1.542 1.561-2.896 2.437-4.75 2.437zM228.719 82.807h6.458v-17c1.771-1.854 3.354-2.771 4.771-2.771 2.333 0 3.437 1.355 3.437 5.167v14.604h6.479v-17c1.772-1.854 3.355-2.771 4.772-2.771 2.353 0 3.457 1.355 3.457 5.167v14.604h6.48V67.39c0-6.208-2.437-9.918-7.688-9.918-3.208 0-5.604 1.939-7.854 4.313-1.187-2.729-3.271-4.313-6.791-4.313-3.23 0-5.521 1.751-7.604 3.918h-.167l-.438-3.312h-5.312zM278.37 83.432c6.458 0 9.854-3.5 9.854-7.812 0-4.604-3.625-6.23-6.896-7.48-2.604-.957-5.021-1.624-5.021-3.437 0-1.417 1.062-2.375 3.272-2.375 1.853 0 3.561.875 5.333 2.104l2.916-3.916c-2.083-1.543-4.812-3.043-8.437-3.043-5.563 0-9.188 3.125-9.188 7.584 0 4.104 3.625 6 6.77 7.208 2.606 1 5.167 1.855 5.167 3.708 0 1.543-1.104 2.606-3.583 2.606-2.292 0-4.417-.98-6.625-2.71l-2.959 4.063c2.439 2.041 6.106 3.5 9.396 3.5zM299.224 83.432c2.812 0 5.292-1.416 7.459-3.27h.124l.5 2.645h5.292V68.369c0-7.145-3.23-10.896-9.5-10.896-3.875 0-7.416 1.459-10.334 3.251l2.355 4.292c2.292-1.333 4.5-2.333 6.792-2.333 3.041 0 4.104 1.853 4.187 4.27-9.916 1.063-14.208 3.854-14.208 9.145 0 4.188 2.916 7.334 7.333 7.334zm2.125-5.083c-1.917 0-3.27-.833-3.27-2.792 0-2.188 2.02-3.833 8.02-4.625v4.98c-1.542 1.561-2.896 2.437-4.75 2.437zM321.412 92.745c5.52 0 8.167-3.354 10.333-9.188l8.791-25.478h-6.23l-3.394 11.478c-.584 2.292-1.188 4.688-1.772 6.979h-.228c-.688-2.375-1.313-4.77-2.063-6.979l-3.937-11.478h-6.521l9.625 24.29-.459 1.46c-.688 2.166-2.104 3.75-4.625 3.75-.583 0-1.292-.188-1.73-.314l-1.186 4.98c.979.312 1.937.5 3.396.5zM355.136 82.807h6.521V50.14h-6.521zM369.167 82.807h6.458v-17c1.854-1.812 3.124-2.771 5.167-2.771 2.416 0 3.479 1.355 3.479 5.167v14.604h6.5V67.39c0-6.208-2.312-9.918-7.646-9.918-3.354 0-5.874 1.751-8.042 3.876h-.166l-.438-3.27h-5.312zM397.443 82.807h6.458v-17c1.854-1.812 3.126-2.771 5.167-2.771 2.416 0 3.479 1.355 3.479 5.167v14.604h6.5V67.39c0-6.208-2.312-9.918-7.646-9.918-3.354 0-5.874 1.751-8.041 3.876h-.167l-.438-3.27h-5.312zM436.057 83.432c6.188 0 11.875-4.77 11.875-12.937 0-8.25-5.687-13.022-11.875-13.022-6.166 0-11.874 4.772-11.874 13.022 0 8.166 5.708 12.937 11.874 12.937zm0-5.312c-3.354 0-5.25-3-5.25-7.625 0-4.688 1.896-7.73 5.25-7.73 3.355 0 5.25 3.042 5.25 7.73 0 4.625-1.895 7.625-5.25 7.625zM458.615 82.807h7.521l8.25-24.728h-6.23l-3.625 12.333c-.646 2.416-1.354 4.979-1.979 7.5h-.23c-.645-2.521-1.353-5.084-1.978-7.5l-3.625-12.333h-6.522zM483.557 83.432c2.812 0 5.292-1.416 7.459-3.27h.124l.5 2.645h5.292V68.369c0-7.145-3.23-10.896-9.5-10.896-3.875 0-7.416 1.459-10.333 3.251l2.354 4.292c2.292-1.333 4.5-2.333 6.792-2.333 3.042 0 4.104 1.853 4.187 4.27-9.916 1.063-14.208 3.854-14.208 9.145 0 4.188 2.916 7.334 7.333 7.334zm2.126-5.083c-1.918 0-3.271-.833-3.271-2.792 0-2.188 2.02-3.833 8.02-4.625v4.98c-1.541 1.561-2.896 2.437-4.75 2.437zM511.776 83.432c2.167 0 3.875-.5 5.208-.937l-1.063-4.73c-.666.271-1.624.542-2.437.542-2.208 0-3.353-1.334-3.353-4.146V63.203h6.104v-5.124h-6.104v-6.606h-5.418l-.749 6.606-3.813.312v4.812h3.5V74.16c0 5.563 2.25 9.27 8.125 9.27zM521.255 82.807h6.459V58.079h-6.46zm3.272-28.687c2.208 0 3.853-1.5 3.853-3.541 0-2.126-1.645-3.522-3.853-3.522-2.251 0-3.876 1.396-3.876 3.522 0 2.04 1.625 3.54 3.876 3.54zM545.036 83.432c6.188 0 11.876-4.77 11.876-12.937 0-8.25-5.688-13.022-11.876-13.022-6.167 0-11.875 4.772-11.875 13.022 0 8.166 5.708 12.937 11.875 12.937zm0-5.312c-3.353 0-5.25-3-5.25-7.625 0-4.688 1.897-7.73 5.25-7.73 3.355 0 5.25 3.042 5.25 7.73 0 4.625-1.895 7.625-5.25 7.625zM562.38 82.807h6.459v-17c1.854-1.812 3.125-2.771 5.166-2.771 2.416 0 3.479 1.355 3.479 5.167v14.604h6.5V67.39c0-6.208-2.312-9.918-7.645-9.918-3.355 0-5.875 1.751-8.042 3.876h-.166l-.438-3.27h-5.313zM597.719 83.432c6.458 0 9.854-3.5 9.854-7.812 0-4.604-3.625-6.23-6.896-7.48-2.604-.957-5.021-1.624-5.021-3.437 0-1.417 1.063-2.375 3.27-2.375 1.855 0 3.563.875 5.334 2.104l2.917-3.916c-2.084-1.543-4.813-3.043-8.437-3.043-5.563 0-9.188 3.125-9.188 7.584 0 4.104 3.625 6 6.77 7.208 2.605 1 5.167 1.855 5.167 3.708 0 1.543-1.104 2.606-3.582 2.606-2.292 0-4.418-.98-6.626-2.71l-2.958 4.063c2.437 2.041 6.104 3.5 9.396 3.5z" fill="#313076"/></svg>