<?xml version="1.0" encoding="UTF-8" standalone="no"?>
<svg
   xmlns:dc="http://purl.org/dc/elements/1.1/"
   xmlns:cc="http://creativecommons.org/ns#"
   xmlns:rdf="http://www.w3.org/1999/02/22-rdf-syntax-ns#"
   xmlns:svg="http://www.w3.org/2000/svg"
   xmlns="http://www.w3.org/2000/svg"
   viewBox="0 0 608 145.33333"
   height="145.33333"
   width="608"
   xml:space="preserve"
   id="svg2"
   version="1.1"><metadata
     id="metadata8"><rdf:RDF><cc:Work
         rdf:about=""><dc:format>image/svg+xml</dc:format><dc:type
           rdf:resource="http://purl.org/dc/dcmitype/StillImage" /></cc:Work></rdf:RDF></metadata><defs
     id="defs6" /><g
     transform="matrix(1.3333333,0,0,-1.3333333,0,145.33333)"
     id="g10"><g
       transform="scale(0.1)"
       id="g12"><path
         id="path14"
         style="fill:#302e75;fill-opacity:1;fill-rule:evenodd;stroke:none"
         d="m 458.59,55.1211 c 105.199,-3.3594 198.789,23 280.789,79.1409 81.992,55.937 139.531,134.758 172.57,236.437 14.813,72.821 4.5,139.852 -30.859,201.063 -35.391,61.047 -92.031,97.109 -169.961,108.199 31.492,-7.383 61.141,-19.609 88.949,-36.68 27.621,-17.23 49.531,-41.09 65.703,-71.519 29.528,-70.203 35.981,-138.524 19.258,-205.043 C 868.32,300.43 836.129,239.922 788.441,185.199 725.66,124.84 654.219,87.1094 574.18,71.9883 494.141,57.0313 411.449,55.9805 326.172,68.8281 369.961,60.5508 414.102,55.9805 458.59,55.1211 M 624.059,548.551 c -35.7,-24.641 -68.508,-37.571 -98.399,-38.781 -54.719,17.07 -95.969,48.628 -123.781,94.718 -27.617,46.102 -37.93,96.992 -30.859,152.782 9.64,69.14 36.75,127.73 81.25,175.742 44.371,48.039 94.57,87.338 150.699,117.968 102.691,37.65 206.441,43.43 311.09,17.42 104.691,-26.21 196.761,-78.478 276.291,-156.759 -78.98,77.929 -168.51,130.779 -268.631,158.589 -100.078,27.62 -201.25,26.29 -303.481,-3.98 C 546.48,1035.31 485.352,992.852 434.84,938.828 384.219,884.648 357.73,818.949 355.43,741.719 c 7.23,-49.258 23.871,-97.578 49.879,-144.879 26.062,-47.309 64.921,-76.25 116.64,-86.801 39.071,1.051 73.09,13.871 102.11,38.512 m -11.329,58.051 c -22.339,21.636 -40.031,46.878 -53.039,75.738 -13.05,28.832 -8.91,58.91 12.379,90.238 31.168,39.223 69.141,68.871 114.02,88.902 44.648,19.93 94.18,26.329 148.558,19.301 98.161,-22.543 176.802,-68.359 235.902,-137.5 59.25,-68.941 97.89,-149.101 115.86,-240.39 17.93,-91.289 14.02,-181.719 -11.64,-271.25 23.59,103.089 22.96,206.089 -1.84,308.98 -24.81,103.09 -75.74,190.707 -152.77,262.82 -48.051,41.52 -103.211,68.438 -165.469,80.739 -62.269,12.34 -121.921,8.398 -178.91,-11.879 C 618.789,852.109 574.18,813.828 541.988,757.539 533.398,683.281 556.949,633.012 612.73,606.602 M 843.629,84.3789 c 44.652,44.3321 83.281,95.1091 115.82,152.2621 32.391,57.187 51.641,118.129 57.781,182.847 5.97,64.922 -8.44,131.102 -43.25,198.442 -33.281,62.461 -82.851,107.582 -148.82,135.39 -65.98,27.621 -134.93,34.059 -206.922,19.258 C 721.371,785.078 808.949,760 881.09,697.379 953.199,634.57 994.449,551.449 1004.84,448.012 1002.93,353.871 975.82,267.77 923.551,189.691 871.328,111.762 805.23,50.3516 725.391,5.51172 767.809,28.5508 807.191,54.8398 843.629,84.3789 M 758.121,408.16 C 708.16,333.949 640.941,285.039 556.52,261.449 472.07,237.891 389.648,248.52 309.262,293.398 245.738,340.352 194.84,396.988 156.48,463.32 118.121,529.801 102.031,602.031 108.199,679.961 95,590.781 111.172,509.84 156.719,437.191 202.5,364.531 264.57,309.922 343.051,273.32 c 78.277,-36.601 159.719,-45.39 244.328,-26.371 62.973,24.961 111.101,64.031 144.34,117.153 33.441,53.128 45.582,109.957 36.441,170.468 7.891,-40.308 4.57,-82.422 -10.039,-126.41 m -209.801,3.719 c -57.851,-17.43 -109.57,-10.75 -155.16,20.031 -45.539,30.789 -83.898,67.039 -115.039,108.711 -35,62.82 -49.101,127.899 -42.223,195.277 6.68,67.383 28.051,131.332 64.141,191.832 35.859,60.508 80.121,111.88 132.731,154.11 -86.051,-57 -145.93,-132.391 -179.719,-226.141 -33.75,-93.75 -35.711,-188.398 -5.781,-283.937 21.949,-52.582 55.308,-95.16 100,-127.703 44.839,-32.539 92.769,-48.668 143.82,-48.321 51.18,0.203 97.351,23.172 138.519,68.91 -18.828,-23.597 -45.898,-41.168 -81.289,-52.769 m 50.942,166.48 c -52.973,6.68 -89.262,31.129 -108.992,73.36 -19.532,42.07 -18,87.543 4.5,136.441 32.031,51.531 74.332,91.02 126.91,118.481 52.769,27.418 108.91,42.89 168.359,46.449 59.652,3.32 115.742,-5.32 168.359,-25.86 C 885.59,979.102 807.031,995.199 722.73,975.512 638.32,955.781 567.422,913.91 510.078,849.879 484.02,817.191 466.641,778.281 457.809,733.281 c -8.59,-45.043 8.832,-85.429 52.269,-121.133 24.801,-21.636 54.531,-32.886 89.184,-33.789 M 702.969,416.09 C 666.91,370.16 621.602,339.57 567.07,324.262 c -54.531,-15.473 -109.609,-15.473 -165.191,0 -77.738,32.726 -138.641,82.5 -182.578,149.328 -44.031,67.031 -68.281,140.941 -72.852,221.68 -4.379,80.75 13.821,158.05 54.641,231.96 -45.93,-58.402 -71.168,-123.679 -75.738,-195.82 -4.571,-72.109 7.968,-140.82 37.738,-206.101 29.879,-65.27 73.43,-116.789 130.582,-154.61 70.898,-48.039 141.797,-71.871 212.699,-71.519 70.738,0.351 133.789,34.492 189.219,102.379 22.34,30.281 31.832,58.75 28.469,85.511 -3.508,26.91 -14.758,56.45 -33.75,88.668 29.73,-45.738 33.953,-98.976 12.66,-159.648 m 109.222,95 C 823.281,437.539 810.781,372.191 774.73,315.039 738.871,257.66 688.711,214.219 624.34,184.648 560.121,155.121 491.172,145 417.461,154.301 317.891,172.07 234.77,213.949 168.09,279.922 101.41,345.898 45.3906,422.5 0,509.77 41.8789,398.75 112.77,311.84 212.699,249.059 c 99.723,-62.809 209.141,-84.098 328.242,-63.86 53.829,14.762 100.969,35.539 141.438,62.262 40.473,26.758 76.601,63.949 108.48,111.598 17.582,50.711 24.692,101.332 21.332,152.031" /><path
         id="path16"
         style="fill:#313076;fill-opacity:1;fill-rule:nonzero;stroke:none"
         d="m 1349.34,675.199 h 31.87 c 31.41,0 48.59,-8.91 48.59,-35.469 0,-26.101 -17.18,-39.378 -48.59,-39.378 h -31.87 z m 139.06,-206.25 -57.19,100.313 c 28.13,10.937 46.72,33.75 46.72,70.468 0,56.399 -40.78,74.219 -92.03,74.219 h -85.47 v -245 h 48.91 v 92.653 h 34.21 l 50.32,-92.653 z m 76.83,-4.687 c 21.1,0 39.69,10.617 55.94,24.527 h 0.94 l 3.75,-19.84 h 39.69 V 577.23 c 0,53.59 -24.22,81.719 -71.25,81.719 -29.07,0 -55.63,-10.937 -77.5,-24.379 l 17.65,-32.191 c 17.19,10 33.75,17.5 50.94,17.5 22.81,0 30.78,-13.899 31.41,-32.027 -74.38,-7.973 -106.57,-28.903 -106.57,-68.59 0,-31.41 21.88,-55 55,-55 z m 15.94,38.117 c -14.37,0 -24.53,6.25 -24.53,20.941 0,16.41 15.16,28.75 60.16,34.692 V 520.66 c -11.57,-11.711 -21.72,-18.281 -35.63,-18.281 z" /><path
         id="path18"
         style="fill:#313076;fill-opacity:1;fill-rule:nonzero;stroke:none"
         d="m 1715.39,468.949 h 48.44 v 127.5 c 13.28,13.903 25.15,20.781 35.78,20.781 17.5,0 25.78,-10.16 25.78,-38.75 V 468.949 h 48.59 v 127.5 c 13.29,13.903 25.16,20.781 35.79,20.781 17.65,0 25.93,-10.16 25.93,-38.75 V 468.949 h 48.6 V 584.57 c 0,46.559 -18.28,74.379 -57.66,74.379 -24.06,0 -42.03,-14.539 -58.91,-32.347 -8.9,20.468 -24.53,32.347 -50.93,32.347 -24.22,0 -41.41,-13.129 -57.03,-29.379 h -1.25 l -3.29,24.84 h -39.84 z" /><path
         id="path20"
         style="fill:#313076;fill-opacity:1;fill-rule:nonzero;stroke:none"
         d="m 2087.77,464.262 c 48.44,0 73.91,26.25 73.91,58.59 0,34.527 -27.19,46.718 -51.72,56.097 -19.53,7.18 -37.66,12.18 -37.66,25.781 0,10.622 7.97,17.809 24.54,17.809 13.9,0 26.71,-6.559 40,-15.777 l 21.87,29.367 c -15.62,11.57 -36.09,22.82 -63.28,22.82 -41.72,0 -68.91,-23.437 -68.91,-56.879 0,-30.781 27.19,-45 50.78,-54.058 19.54,-7.5 38.75,-13.91 38.75,-27.813 0,-11.57 -8.28,-19.539 -26.87,-19.539 -17.19,0 -33.13,7.352 -49.69,20.32 l -22.19,-30.468 c 18.29,-15.313 45.79,-26.25 70.47,-26.25 z" /><path
         id="path22"
         style="fill:#313076;fill-opacity:1;fill-rule:nonzero;stroke:none"
         d="m 2244.18,464.262 c 21.09,0 39.69,10.617 55.94,24.527 h 0.93 l 3.75,-19.84 h 39.69 V 577.23 c 0,53.59 -24.22,81.719 -71.25,81.719 -29.06,0 -55.62,-10.937 -77.5,-24.379 l 17.66,-32.191 c 17.19,10 33.75,17.5 50.94,17.5 22.81,0 30.78,-13.899 31.4,-32.027 -74.37,-7.973 -106.56,-28.903 -106.56,-68.59 0,-31.41 21.87,-55 55,-55 z m 15.94,38.117 c -14.38,0 -24.53,6.25 -24.53,20.941 0,16.41 15.15,28.75 60.15,34.692 V 520.66 c -11.56,-11.711 -21.72,-18.281 -35.62,-18.281 z" /><path
         id="path24"
         style="fill:#313076;fill-opacity:1;fill-rule:nonzero;stroke:none"
         d="m 2410.59,394.41 c 41.4,0 61.25,25.16 77.5,68.91 l 65.93,191.09 h -46.72 l -25.46,-86.09 c -4.38,-17.191 -8.91,-35.16 -13.29,-52.34 h -1.71 c -5.16,17.809 -9.85,35.782 -15.47,52.34 l -29.53,86.09 h -48.91 l 72.19,-182.18 -3.44,-10.941 c -5.16,-16.25 -15.78,-28.129 -34.69,-28.129 -4.37,0 -9.69,1.41 -12.97,2.352 l -8.9,-37.352 c 7.34,-2.34 14.53,-3.75 25.47,-3.75 z" /><path
         id="path26"
         style="fill:#313076;fill-opacity:1;fill-rule:nonzero;stroke:none"
         d="m 2663.52,468.949 h 48.9102 v 245 H 2663.52 Z" /><path
         id="path28"
         style="fill:#313076;fill-opacity:1;fill-rule:nonzero;stroke:none"
         d="m 2768.75,468.949 h 48.44 v 127.5 c 13.9,13.59 23.43,20.781 38.75,20.781 18.12,0 26.09,-10.16 26.09,-38.75 V 468.949 h 48.75 V 584.57 c 0,46.559 -17.34,74.379 -57.34,74.379 -25.16,0 -44.06,-13.129 -60.32,-29.07 h -1.24 l -3.29,24.531 h -39.84 z" /><path
         id="path30"
         style="fill:#313076;fill-opacity:1;fill-rule:nonzero;stroke:none"
         d="m 2980.82,468.949 h 48.44 v 127.5 c 13.9,13.59 23.44,20.781 38.75,20.781 18.12,0 26.09,-10.16 26.09,-38.75 V 468.949 h 48.75 V 584.57 c 0,46.559 -17.34,74.379 -57.34,74.379 -25.16,0 -44.06,-13.129 -60.31,-29.07 h -1.25 l -3.29,24.531 h -39.84 z" /><path
         id="path32"
         style="fill:#313076;fill-opacity:1;fill-rule:nonzero;stroke:none"
         d="m 3270.43,464.262 c 46.41,0 89.06,35.777 89.06,97.027 0,61.871 -42.65,97.66 -89.06,97.66 -46.25,0 -89.06,-35.789 -89.06,-97.66 0,-61.25 42.81,-97.027 89.06,-97.027 z m 0,39.84 c -25.16,0 -39.38,22.5 -39.38,57.187 0,35.16 14.22,57.973 39.38,57.973 25.16,0 39.37,-22.813 39.37,-57.973 0,-34.687 -14.21,-57.187 -39.37,-57.187 z" /><path
         id="path34"
         style="fill:#313076;fill-opacity:1;fill-rule:nonzero;stroke:none"
         d="m 3439.61,468.949 h 56.41 l 61.87,185.461 h -46.72 l -27.19,-92.5 c -4.84,-18.121 -10.15,-37.34 -14.84,-56.25 h -1.72 c -4.84,18.91 -10.15,38.129 -14.84,56.25 l -27.19,92.5 h -48.91 z" /><path
         id="path36"
         style="fill:#313076;fill-opacity:1;fill-rule:nonzero;stroke:none"
         d="m 3626.68,464.262 c 21.09,0 39.69,10.617 55.94,24.527 h 0.93 l 3.75,-19.84 h 39.69 V 577.23 c 0,53.59 -24.22,81.719 -71.25,81.719 -29.06,0 -55.62,-10.937 -77.5,-24.379 l 17.66,-32.191 c 17.19,10 33.75,17.5 50.94,17.5 22.81,0 30.78,-13.899 31.4,-32.027 -74.37,-7.973 -106.56,-28.903 -106.56,-68.59 0,-31.41 21.87,-55 55,-55 z m 15.94,38.117 c -14.38,0 -24.53,6.25 -24.53,20.941 0,16.41 15.15,28.75 60.15,34.692 V 520.66 c -11.56,-11.711 -21.72,-18.281 -35.62,-18.281 z" /><path
         id="path38"
         style="fill:#313076;fill-opacity:1;fill-rule:nonzero;stroke:none"
         d="m 3838.32,464.262 c 16.25,0 29.06,3.75 39.06,7.027 l -7.97,35.473 c -5,-2.032 -12.18,-4.063 -18.28,-4.063 -16.56,0 -25.15,10 -25.15,31.09 v 82.191 h 45.78 v 38.43 h -45.78 v 49.539 h -40.63 l -5.62,-49.539 -28.6,-2.34 v -36.09 h 26.25 v -82.191 c 0,-41.719 16.88,-69.527 60.94,-69.527 z" /><path
         id="path40"
         style="fill:#313076;fill-opacity:1;fill-rule:nonzero;stroke:none"
         d="m 3909.41,468.949 h 48.4414 V 654.41 H 3909.41 Z m 24.54,215.153 c 16.56,0 28.9,11.25 28.9,26.558 0,15.942 -12.34,26.41 -28.9,26.41 -16.88,0 -29.07,-10.468 -29.07,-26.41 0,-15.308 12.19,-26.558 29.07,-26.558 z" /><path
         id="path42"
         style="fill:#313076;fill-opacity:1;fill-rule:nonzero;stroke:none"
         d="m 4087.77,464.262 c 46.41,0 89.07,35.777 89.07,97.027 0,61.871 -42.66,97.66 -89.07,97.66 -46.25,0 -89.06,-35.789 -89.06,-97.66 0,-61.25 42.81,-97.027 89.06,-97.027 z m 0,39.84 c -25.15,0 -39.37,22.5 -39.37,57.187 0,35.16 14.22,57.973 39.37,57.973 25.16,0 39.38,-22.813 39.38,-57.973 0,-34.687 -14.22,-57.187 -39.38,-57.187 z" /><path
         id="path44"
         style="fill:#313076;fill-opacity:1;fill-rule:nonzero;stroke:none"
         d="m 4217.85,468.949 h 48.44 v 127.5 c 13.91,13.59 23.44,20.781 38.75,20.781 18.12,0 26.09,-10.16 26.09,-38.75 V 468.949 h 48.75 V 584.57 c 0,46.559 -17.34,74.379 -57.34,74.379 -25.16,0 -44.06,-13.129 -60.31,-29.07 h -1.25 l -3.28,24.531 h -39.85 z" /><path
         id="path46"
         style="fill:#313076;fill-opacity:1;fill-rule:nonzero;stroke:none"
         d="m 4482.89,464.262 c 48.44,0 73.91,26.25 73.91,58.59 0,34.527 -27.19,46.718 -51.72,56.097 -19.53,7.18 -37.66,12.18 -37.66,25.781 0,10.622 7.97,17.809 24.53,17.809 13.91,0 26.72,-6.559 40,-15.777 l 21.88,29.367 c -15.63,11.57 -36.1,22.82 -63.28,22.82 -41.72,0 -68.91,-23.437 -68.91,-56.879 0,-30.781 27.19,-45 50.78,-54.058 19.53,-7.5 38.75,-13.91 38.75,-27.813 0,-11.57 -8.28,-19.539 -26.87,-19.539 -17.19,0 -33.13,7.352 -49.69,20.32 l -22.19,-30.468 c 18.28,-15.313 45.78,-26.25 70.47,-26.25 z" /></g></g></svg>